<svg width="44" height="42" viewBox="0 0 44 42" fill="none" xmlns="http://www.w3.org/2000/svg">
<g clip-path="url(#clip0_1258_346)">
<path d="M27.2277 16.0009H27.2122V15.9719L21.9999 0L16.7412 16.0009L16.3648 17.1964V17.241H16.3493L13.9381 24.7435L14.9478 25.5147C14.9478 25.5043 14.9529 25.4992 14.9632 25.4992L17.6447 17.241L26.3088 17.2119L25.9323 16.0009H18.0366L21.9844 3.96245L25.9169 15.9719C25.9169 15.9874 25.9323 15.9874 25.9323 16.0009L26.3088 17.2119C26.3242 17.2119 26.3377 17.2119 26.3377 17.1964V17.2274H27.6331L40.2296 17.272L30.0732 24.7125C30.0578 24.728 30.0578 24.7435 30.0424 24.7435L27.6157 17.2274H26.3339L29.0173 25.5011C29.0173 25.5011 29.0327 25.5011 29.0327 25.5166L29.0173 25.5321L29.4092 26.7412V26.7722L33.2663 38.7952L23.0655 31.3992H23.0211C25.1601 29.8414 27.2856 28.2835 29.4092 26.7412L29.0173 25.5321L22.0115 30.6436C22.0012 30.6436 21.996 30.6487 21.996 30.6591C21.996 30.6487 21.9909 30.6436 21.9806 30.6436H21.9651L14.9729 25.5321L14.581 26.7276L20.9555 31.4012H20.9246L10.7219 38.7971L14.579 26.7741V26.7296L14.9709 25.534C14.9709 25.534 14.9555 25.5185 14.94 25.5185L13.9304 24.7474L13.9149 24.7319L3.74313 17.2759L16.3397 17.2449L16.3551 17.2003L16.7315 16.0048L-0.00976562 16.0494L13.5057 25.9565C13.5057 25.9565 13.5211 25.9564 13.5366 25.972V25.9875C13.5366 25.9875 13.5366 26.003 13.5211 26.0185L8.38213 42.0039L21.9593 32.1588H21.9902C21.9902 32.1588 22.0057 32.1588 22.0057 32.1743L35.5829 42.0039L30.4439 26.003C30.4439 26.003 30.4439 25.9875 30.4285 25.9875H30.4439V25.972C30.4439 25.972 30.4593 25.972 30.4593 25.9565L43.9902 16.0494L27.2335 16.0048H27.218" fill="white"/>
<path d="M18.2629 20.0234C18.0371 19.9479 17.8266 19.9324 17.6008 19.9479C18.0236 20.1145 18.3247 20.3858 18.5351 20.7946C18.7012 21.1279 18.761 21.4902 18.7166 21.839L17.4502 21.4302C17.3749 21.4147 17.3151 21.4147 17.2552 21.4612C17.1954 21.4922 17.1645 21.5522 17.1355 21.6278C17.1046 21.7034 17.1046 21.7789 17.1355 21.839C17.1664 21.9146 17.2108 21.9591 17.2707 21.9746L18.5371 22.3835C18.371 22.7167 18.1143 22.9725 17.7687 23.1391C17.3768 23.3503 16.9541 23.3968 16.5332 23.2748C16.6992 23.4259 16.8788 23.5325 17.1066 23.608C17.5737 23.7592 18.0409 23.7146 18.4772 23.4724C18.8382 23.2767 19.095 22.988 19.2764 22.6257L19.5622 22.7322L19.4425 23.1101C19.4116 23.1856 19.427 23.2457 19.4734 23.3058C19.5042 23.3658 19.5641 23.4123 19.6394 23.4414C19.7147 23.4705 19.79 23.4569 19.8498 23.4259C19.9097 23.4104 19.956 23.3503 19.9849 23.2903L20.1046 22.8969L20.3749 22.988C20.4347 23.0035 20.4946 23.0035 20.5699 22.957C20.6143 22.9279 20.6606 22.8659 20.6896 22.7904C20.7205 22.7148 20.7205 22.6392 20.6896 22.5792C20.6587 22.5036 20.6143 22.459 20.539 22.4435L20.2822 22.3525L20.4174 21.9591C20.4328 21.8836 20.4174 21.8235 20.3865 21.7634C20.3556 21.7034 20.2958 21.6569 20.2205 21.6433C20.1297 21.6123 20.0699 21.6123 19.9946 21.6433C19.9347 21.6743 19.8884 21.7189 19.8595 21.7789L19.7398 22.1723L19.4541 22.0812C19.5139 21.7034 19.4695 21.31 19.288 20.9477C19.0776 20.4943 18.7301 20.192 18.2629 20.0254" fill="white"/>
<path d="M20.1162 18.6632C20.1162 19.1476 20.2977 19.57 20.6587 19.9343C20.9598 20.2056 21.3073 20.3722 21.7127 20.4323V20.7345H21.29C21.2147 20.7345 21.1703 20.7636 21.1239 20.8256C21.0641 20.8702 21.0486 20.9457 21.0486 21.0232C21.0486 21.1143 21.0641 21.1744 21.1239 21.2344C21.1683 21.279 21.2147 21.31 21.29 21.31H21.7127V21.5968C21.7127 21.6569 21.7436 21.7169 21.788 21.7634C21.8479 21.808 21.9077 21.839 21.9985 21.839C22.0737 21.839 22.1336 21.8099 22.1934 21.7634C22.2533 21.7189 22.2687 21.6569 22.2687 21.5968V21.31H22.6915C22.7668 21.31 22.8266 21.279 22.873 21.2344C22.9174 21.1744 22.9328 21.1143 22.9328 21.0232C22.9328 20.9477 22.9174 20.8721 22.873 20.8256C22.8286 20.7655 22.7668 20.7345 22.6915 20.7345H22.2687V20.4323C22.6606 20.3722 23.0062 20.2056 23.3093 19.9343C23.6703 19.572 23.8517 19.1476 23.8517 18.6632C23.8517 18.4365 23.8208 18.2098 23.732 18.0122C23.7012 18.4501 23.5371 18.8299 23.2205 19.1457C22.9502 19.4325 22.6336 19.5991 22.2707 19.6437V18.3125C22.2707 18.2524 22.2552 18.1924 22.1954 18.1459C22.1355 18.1013 22.0757 18.0703 22.0004 18.0703C21.9096 18.0703 21.8498 18.0994 21.79 18.1459C21.7456 18.1904 21.7147 18.2524 21.7147 18.3125V19.6592C21.3537 19.5991 21.0371 19.4325 20.7494 19.1457C20.4328 18.8279 20.2668 18.4501 20.2378 18.0122C20.1625 18.2079 20.1181 18.4346 20.1181 18.6632" fill="white"/>
<path d="M26.3846 19.9343C26.1742 19.9188 25.9483 19.9498 25.7224 20.0254C25.2553 20.161 24.9097 20.4788 24.6974 20.9322C24.5313 21.31 24.4715 21.6879 24.5468 22.0812L24.2611 22.1878L24.1259 21.7944C24.1105 21.7189 24.0661 21.6743 24.0062 21.6433C23.9309 21.6278 23.8557 21.6123 23.7804 21.6433C23.7051 21.6743 23.6607 21.7189 23.6143 21.7789C23.5835 21.839 23.5545 21.8991 23.5835 21.9611L23.7031 22.3544L23.4464 22.4455C23.3865 22.461 23.3267 22.5055 23.3113 22.5811C23.2804 22.6412 23.2804 22.7167 23.3113 22.7923C23.3267 22.8679 23.3711 22.9279 23.4309 22.9589C23.4753 23.0035 23.5506 23.0035 23.6259 22.9899L23.8962 22.8989L24.0159 23.3077C24.0313 23.3678 24.0757 23.4143 24.151 23.4433C24.2109 23.4724 24.2862 23.4724 24.3614 23.4433C24.4367 23.4123 24.4966 23.3678 24.5275 23.3232C24.5719 23.2631 24.5719 23.1876 24.5584 23.1275L24.4232 22.7342L24.7244 22.6276C24.9058 22.9899 25.1607 23.2631 25.5082 23.4588C25.9599 23.7011 26.4116 23.7456 26.8788 23.5945C27.0892 23.5189 27.3016 23.4123 27.4657 23.2767C27.0448 23.3833 26.6221 23.3368 26.2147 23.1411C25.8827 22.9589 25.6279 22.7167 25.4618 22.3854L26.7128 21.9766C26.7881 21.9611 26.8325 21.9165 26.8634 21.8409C26.8788 21.7809 26.8943 21.7053 26.8634 21.6297C26.8344 21.5542 26.7881 21.4941 26.7282 21.4631C26.6684 21.4185 26.6085 21.4185 26.5468 21.4321L25.2804 21.8409C25.2051 21.4786 25.2804 21.1298 25.4618 20.783C25.6587 20.3741 25.9734 20.1029 26.3807 19.9362" fill="white"/>
<path d="M24.0941 24.6369C24.1096 24.5769 24.0787 24.5013 24.0343 24.4412C23.988 24.3812 23.9281 24.3346 23.8528 24.3211C23.7775 24.3056 23.7331 24.3211 23.6714 24.3521L23.3393 24.5943L23.1733 24.3676C23.1289 24.3075 23.0671 24.2765 23.0073 24.2765C22.932 24.2765 22.8567 24.292 22.7969 24.3366C22.7216 24.3831 22.6907 24.4432 22.6772 24.5187C22.6617 24.5788 22.6772 24.6389 22.708 24.7009L22.8741 24.9276L22.542 25.1853C22.4822 25.2163 22.4513 25.2763 22.4513 25.3519C22.4358 25.4275 22.4667 25.4875 22.5111 25.5631C22.5555 25.6232 22.6173 25.6697 22.6772 25.6832C22.7525 25.6987 22.8123 25.6832 22.8721 25.6387L23.2177 25.3965L23.3992 25.6387C23.098 25.9254 22.932 26.2587 22.8567 26.6676C22.7505 27.1675 22.8567 27.6054 23.1424 27.9987C23.2775 28.1944 23.4436 28.3455 23.625 28.4676C23.3992 28.0898 23.3084 27.6809 23.3837 27.2275C23.4281 26.8497 23.5942 26.5319 23.8509 26.2742L24.6347 27.3632C24.6656 27.4077 24.7254 27.4387 24.8007 27.4542C24.8606 27.4542 24.9358 27.4232 24.9957 27.3787C25.0555 27.3322 25.1019 27.2721 25.1154 27.212C25.1308 27.1365 25.1308 27.0764 25.0845 27.0163L24.3007 25.9429C24.6328 25.7762 24.9783 25.7162 25.3548 25.7762C25.8065 25.8518 26.1675 26.063 26.4552 26.3963C26.4108 26.1851 26.3046 25.9874 26.1694 25.7917C25.8837 25.3984 25.4918 25.1717 24.9783 25.1116C24.5864 25.0516 24.1945 25.1271 23.849 25.3073L23.6675 25.0651L23.9996 24.8074C24.0594 24.7764 24.0903 24.7164 24.0903 24.6408" fill="white"/>
<path d="M20.3123 24.3346C20.2524 24.3056 20.1926 24.2901 20.1173 24.3056C20.0574 24.3211 19.9976 24.3656 19.9358 24.4257C19.8914 24.5013 19.876 24.5614 19.8914 24.6369C19.8914 24.697 19.9223 24.757 19.9821 24.8036L20.3142 25.0458L20.1327 25.3035C19.7872 25.1213 19.4088 25.0458 19.0034 25.1078C18.5053 25.1678 18.1134 25.3945 17.8123 25.7879C17.6771 25.9836 17.5864 26.1812 17.542 26.4079C17.8123 26.0611 18.1906 25.8479 18.6269 25.7724C19.0034 25.7123 19.3509 25.7724 19.681 25.939L18.8972 27.0124C18.8663 27.057 18.8528 27.1326 18.8663 27.1946C18.8818 27.2702 18.9107 27.3302 18.986 27.3767C19.0459 27.4213 19.1211 27.4368 19.1964 27.4368C19.2563 27.4213 19.3161 27.4058 19.3625 27.3457L20.1462 26.2723C20.3876 26.53 20.5536 26.8477 20.6134 27.2256C20.6887 27.679 20.6134 28.0878 20.3721 28.4657C20.5381 28.3455 20.7177 28.1944 20.8393 28.0123C21.1404 27.6034 21.2312 27.1655 21.1404 26.6656C21.0652 26.2568 20.8837 25.9099 20.598 25.6367L20.764 25.379L21.1115 25.6367C21.1559 25.6677 21.2177 25.6813 21.293 25.6677C21.3682 25.6522 21.4281 25.6077 21.4744 25.5476C21.5188 25.472 21.5497 25.412 21.5343 25.3364C21.5188 25.2763 21.5034 25.2163 21.4435 25.1698L21.1115 24.9276L21.2775 24.7009C21.3084 24.6408 21.3219 24.5807 21.3084 24.5052C21.293 24.4451 21.2486 24.385 21.1887 24.3385C21.1289 24.294 21.0536 24.263 20.9937 24.2785C20.9184 24.2785 20.8431 24.3095 20.8123 24.3695L20.6462 24.5962L20.3142 24.3385" fill="white"/>
</g>
<defs>
<clipPath id="clip0_1258_346">
<rect width="44" height="42" fill="white"/>
</clipPath>
</defs>
</svg>
